<?xml version="1.0" encoding="UTF-8"?>
<svg width="720px" height="720px" viewBox="0 0 720 720" version="1.1" xmlns="http://www.w3.org/2000/svg" xmlns:xlink="http://www.w3.org/1999/xlink">
    <title>Constellation</title>
    <g id="Constellation" stroke="none" stroke-width="1" fill="none" fill-rule="evenodd">
        <g id="Group" transform="translate(347.443910, 374.225674) rotate(45.000000) translate(-347.443910, -374.225674) translate(76.810256, 127.952996)" fill="#511BD9" fill-rule="nonzero" stroke="#511BD9" stroke-width="2">
            <path d="M56.4984487,139.404159 C67.8759487,139.404159 78.1251902,143.966687 85.5305555,151.372053 C92.9359208,158.777418 97.4984487,169.026659 97.4984487,180.404159 C97.4984487,191.79443 92.9377711,202.046598 85.5353408,209.452729 C78.1295951,216.862178 67.878411,221.424159 56.4984487,221.424159 C45.1184864,221.424159 34.8673023,216.862178 27.4615566,209.452729 C20.0591264,202.046598 15.4984487,191.79443 15.4984487,180.404159 C15.4984487,169.026659 20.0609767,158.777418 27.4663419,151.372053 C34.8717072,143.966687 45.1209487,139.404159 56.4984487,139.404159 Z" id="Path" transform="translate(56.498449, 180.414159) scale(-1, 1) rotate(48.000000) translate(-56.498449, -180.414159) "></path>
            <path d="M216.340117,96.9629098 C217.515362,102.212963 219.453799,107.176117 222.014729,111.840371 C174.803956,128.460277 125.614296,143.097176 72.884543,153.60348 C70.986739,153.981614 69.0911198,154.353048 67.1988192,154.719219 C69.1070554,154.998549 71.0175019,155.283123 72.9301447,155.572918 C161.452008,168.985321 242.168359,191.682969 313.01174,225.640514 C309.753552,229.818591 307.209482,234.596068 305.643025,239.771908 C231.118987,204.272248 145.199188,181.341582 49.8412614,168.456714 C51.1990394,164.471781 51.8799501,160.163108 51.8799501,155.684202 C51.8799501,150.785452 51.0139327,146.059897 49.4413317,141.665295 C108.934357,131.418392 163.766149,115.635484 216.340117,96.9629098 Z" id="Path" transform="translate(181.329950, 168.409202) scale(-1, 1) rotate(48.000000) translate(-181.329950, -168.409202) "></path>
            <path d="M74.9442783,232.816724 C91.1943863,259.309274 102.726321,287.214944 108.984947,316.531051 C108.056518,316.470095 107.097074,316.424352 106.137648,316.424352 C101.619189,316.424352 97.1869959,317.20208 93.0791711,318.519898 C87.2761083,291.943499 76.8069937,266.695906 61.9499546,242.406609 C66.695886,239.826971 71.0498147,236.562986 74.9442783,232.816724 Z" id="Path" transform="translate(85.387648, 275.524352) scale(-1, 1) rotate(48.000000) translate(-85.387648, -275.524352) "></path>
            <path d="M286.595875,8.48233493 C293.274135,8.48233493 299.272951,11.1451979 303.602981,15.4752282 C307.933012,19.8052584 310.595875,25.8040741 310.595875,32.4823349 C310.595875,39.1605958 307.933012,45.1594115 303.602981,49.4894417 C299.272951,53.819472 293.274135,56.4823349 286.595875,56.4823349 C279.913688,56.4823349 273.915967,53.8203908 269.587448,49.4918722 C265.257251,45.1616755 262.595875,39.1618862 262.595875,32.4823349 C262.595875,25.8027837 265.257251,19.8029944 269.587448,15.4727976 C273.915967,11.1442791 279.913688,8.48233493 286.595875,8.48233493 Z" id="Path" transform="translate(286.595875, 32.482335) scale(-1, 1) rotate(48.000000) translate(-286.595875, -32.482335) "></path>
            <path d="M231.810831,95.596187 L233.753867,97.5675647 C264.057736,128.283431 294.094894,157.057283 341.63262,170.348187 C339.678511,174.694632 338.541625,179.465706 338.541625,184.498979 C338.541625,184.965864 338.567069,185.458705 338.593007,185.951537 C285.52357,171.479797 252.074486,138.997501 220.604514,107.057334 C225.037092,104.000845 228.839302,100.113567 231.810831,95.596187 L231.810831,95.596187 Z" id="Path" transform="translate(281.041625, 140.648979) scale(-1, 1) rotate(48.000000) translate(-281.041625, -140.648979) "></path>
            <path d="M416.873705,-1.14969181 C395.113705,66.6503082 389.753705,136.050308 384.583705,204.850308 C386.713705,204.350308 388.923705,204.150308 391.183705,204.150308 C395.173705,204.150308 398.993705,204.850308 402.533705,206.250308 C407.723705,137.850308 413.103705,70.2503082 433.823705,5.15030819 C427.643705,4.35030819 421.883705,2.15030819 416.873705,-1.14969181 Z" id="Path" transform="translate(409.203705, 102.550308) scale(-1, 1) rotate(48.000000) translate(-409.203705, -102.550308) "></path>
            <path d="M133.109894,322.415535 C139.788155,322.415535 145.786971,325.078397 150.117001,329.408428 C154.447031,333.738458 157.109894,339.737274 157.109894,346.415535 C157.109894,353.093795 154.447031,359.092611 150.117001,363.422641 C145.786971,367.752672 139.788155,370.415535 133.109894,370.415535 C126.431633,370.415535 120.432818,367.752672 116.102787,363.422641 C111.772757,359.092611 109.109894,353.093795 109.109894,346.415535 C109.109894,339.737274 111.772757,333.738458 116.102787,329.408428 C120.432818,325.078397 126.431633,322.415535 133.109894,322.415535 Z" id="Path" transform="translate(133.109894, 346.415535) scale(-1, 1) rotate(48.000000) translate(-133.109894, -346.415535) "></path>
            <path d="M239.459,280.791 L239.46172,281.050768 C239.549574,286.506548 240.688619,291.70925 242.731923,296.442873 C214.412935,302.33181 185.32538,307.405658 154.373713,306.989847 C155.494563,303.656476 156.056224,300.10218 156.056224,296.467493 C156.056224,294.620679 155.91921,292.842342 155.648752,291.076782 C184.687114,291.23173 212.574346,286.28232 240.656319,280.54727 L239.459,280.791 Z" id="Path" transform="translate(198.556224, 293.790721) scale(-1, 1) rotate(48.000000) translate(-198.556224, -293.790721) "></path>
            <path d="M236.56851,238.35968 C236.56851,247.05968 243.36851,253.85968 252.06851,253.85968 C260.76851,253.85968 267.56851,247.05968 267.56851,238.35968 C267.56851,229.65968 260.76851,222.85968 252.06851,222.85968 C243.36851,222.85968 236.56851,229.65968 236.56851,238.35968 Z" id="Path" transform="translate(252.068510, 238.359680) scale(-1, 1) rotate(48.000000) translate(-252.068510, -238.359680) "></path>
            <path d="M340.250089,257.474146 C342.784428,262.183643 346.217489,266.407706 350.283497,269.820716 C296.311113,314.477847 247.580013,361.31462 212.868724,414.182696 C208.862815,410.648715 204.179571,407.831651 199.020218,406.054139 C235.207714,350.624154 285.465773,302.766923 340.250089,257.474146 Z" id="Path" transform="translate(274.665202, 335.810588) scale(-1, 1) rotate(48.000000) translate(-274.665202, -335.810588) "></path>
            <path d="M467.456957,148.233634 C470.370079,152.734039 474.325655,156.522301 478.99502,159.270025 C431.21197,205.612778 371.508733,241.743692 310.983491,276.51189 L310.983491,276.51189 L307.170338,278.700026 L304.479639,280.241209 C302.952291,274.999021 300.151105,270.244914 296.435863,266.368269 C358.97524,230.458957 419.922285,194.000368 467.456957,148.233634 Z" id="Path" transform="translate(387.726944, 214.203164) scale(-1, 1) rotate(48.000000) translate(-387.726944, -214.203164) "></path>
            <path d="M175.580994,364.992598 C178.251525,365.534565 180.998017,365.837779 183.820363,365.837779 C186.495704,365.837779 189.093436,365.604463 191.681109,365.073599 C193.032212,391.138502 197.220164,416.734028 204.517146,442.041429 C198.983664,442.597566 193.78901,444.495586 189.390521,447.337878 C181.478572,420.35591 176.935807,392.816351 175.580994,364.992598 Z" id="Path" transform="translate(190.170363, 406.337779) scale(-1, 1) rotate(48.000000) translate(-190.170363, -406.337779) "></path>
            <path d="M230.008773,449.958862 C234.488773,449.958862 238.486613,451.722489 241.36588,454.601756 C244.245146,457.481022 246.008773,461.478862 246.008773,465.958862 C246.008773,470.438862 244.245146,474.436703 241.36588,477.315969 C238.486613,480.195236 234.488773,481.958862 230.008773,481.958862 C225.528773,481.958862 221.530933,480.195236 218.651666,477.315969 C215.7724,474.436703 214.008773,470.438862 214.008773,465.958862 C214.008773,461.478862 215.7724,457.481022 218.651666,454.601756 C221.530933,451.722489 225.528773,449.958862 230.008773,449.958862 Z" id="Path" transform="translate(230.008773, 465.958862) scale(-1, 1) rotate(48.000000) translate(-230.008773, -465.958862) "></path>
            <path d="M520.880002,163.405796 C525.186885,163.405796 529.034018,165.113197 531.808597,167.883927 C534.593741,170.665209 536.300002,174.52015 536.300002,178.805796 C536.300002,183.136397 534.598156,187.010219 531.821764,189.802013 C529.045893,192.593285 525.193534,194.305796 520.880002,194.305796 C516.566471,194.305796 512.714111,192.593285 509.93824,189.802013 C507.161849,187.010219 505.460002,183.136397 505.460002,178.805796 C505.460002,174.52015 507.166263,170.665209 509.951407,167.883927 C512.725986,165.113197 516.57312,163.405796 520.880002,163.405796 Z" id="Path" transform="translate(520.880002, 178.855796) scale(-1, 1) rotate(48.000000) translate(-520.880002, -178.855796) "></path>
            <path d="M390.296933,391.66587 C392.1604,396.821211 395.227292,401.417749 399.234244,405.127633 C351.586451,431.208436 299.913674,439.624232 247.840617,442.746987 C248.147615,440.675211 248.359205,438.532469 248.359205,436.318932 C248.359205,433.047213 247.956694,429.856011 247.228037,426.745181 C297.647757,423.703039 346.099414,415.60181 390.296933,391.66587 Z" id="Path" transform="translate(323.459205, 417.018932) scale(-1, 1) rotate(48.000000) translate(-323.459205, -417.018932) "></path>
            <path d="M412.626114,239.340381 L531.925343,259.225219 C530.250581,263.815423 529.293906,268.740557 529.293906,273.839535 C529.293906,274.223022 529.294388,274.584669 529.304826,274.944331 L529.304826,274.944331 L409.980373,255.066714 C411.74258,250.965715 412.723906,246.530603 412.723906,241.839535 C412.723906,240.972665 412.689478,240.148904 412.626114,239.340381 L412.626114,239.340381 Z" id="Path" transform="translate(470.913906, 257.139535) scale(-1, 1) rotate(48.000000) translate(-470.913906, -257.139535) "></path>
            <path d="M416.157094,318.910894 C422.835355,318.910894 428.834171,321.573757 433.164201,325.903787 C437.494231,330.233818 440.157094,336.232633 440.157094,342.910894 C440.157094,349.589155 437.494231,355.587971 433.164201,359.918001 C428.834171,364.248031 422.835355,366.910894 416.157094,366.910894 C409.478833,366.910894 403.480018,364.248031 399.149987,359.918001 C394.819957,355.587971 392.157094,349.589155 392.157094,342.910894 C392.157094,336.232633 394.819957,330.233818 399.149987,325.903787 C403.480018,321.573757 409.478833,318.910894 416.157094,318.910894 Z" id="Path" transform="translate(416.157094, 342.910894) scale(-1, 1) rotate(48.000000) translate(-416.157094, -342.910894) "></path>
        </g>
    </g>
</svg>