<?xml version="1.0" encoding="UTF-8"?>
<svg width="720px" height="720px" viewBox="0 0 720 720" version="1.1" xmlns="http://www.w3.org/2000/svg" xmlns:xlink="http://www.w3.org/1999/xlink">
    <title>Constellation</title>
    <g id="Constellation" stroke="none" stroke-width="1" fill="none" fill-rule="evenodd">
        <g id="Group" transform="translate(360.085116, 334.055449) rotate(-49.000000) translate(-360.085116, -334.055449) translate(141.380116, 114.545449)" fill-rule="nonzero">
            <path d="M111.1,-1.42108547e-14 C88.9,-1.42108547e-14 71.1,17.8 71.1,40 C71.1,62.23 88.9,80.02 111.1,80.02 C133.3,80.02 151.1,62.23 151.1,40 C151.1,17.8 133.3,-1.42108547e-14 111.1,-1.42108547e-14 Z" id="Path" stroke="#1BD9D9" stroke-width="12" fill="#1BD9D9" transform="translate(111.100000, 40.010000) scale(-1, 1) translate(-111.100000, -40.010000) "></path>
            <path d="M239.3,51.97 C186.1,70.92 130.6,86.92 70.3,97.22 C72.1,101.82 73.1,106.82 73.1,112.02 C73.1,116.82 72.3,121.42 70.7,125.62 C166.9,138.52 253.5,161.62 328.5,197.52 C330.1,191.62 333,186.22 336.8,181.62 C265.6,147.32 184.4,124.42 95.3,110.92 C148.5,100.32 198.1,85.52 245.7,68.72 C242.7,63.52 240.5,57.93 239.3,51.97 L239.3,51.97 Z" id="Path" stroke="#000000" fill="#000000" transform="translate(203.550000, 124.745000) scale(-1, 1) translate(-203.550000, -124.745000) "></path>
            <path d="M49.5,80.82 C45.2,85.12 40.3,88.82 34.9,91.62 C50.2,116.42 60.9,142.22 66.7,169.42 C71,167.92 75.7,167.02 80.5,167.02 C81.9,167.02 83.3,167.12 84.6,167.22 C78.3,136.92 66.4,108.12 49.5,80.82 L49.5,80.82 Z" id="Path" stroke="#000000" fill="#000000" transform="translate(59.750000, 125.120000) scale(-1, 1) translate(-59.750000, -125.120000) "></path>
            <path d="M352,112.02 C352,124.82 362.19,135.02 375,135.02 C387.8,135.02 398,124.82 398,112.02 C398,99.22 387.8,89.02 375,89.02 C362.19,89.02 352,99.22 352,112.02 Z" id="Path" stroke="#D91B7A" stroke-width="12" fill="#D91B7A" transform="translate(375.000000, 112.020000) scale(-1, 1) translate(-375.000000, -112.020000) "></path>
            <path d="M241.5,133.62 C238.3,138.82 234,143.22 228.9,146.52 C261,179.12 295,212.42 349.5,226.92 C349.5,226.02 349.4,225.02 349.4,224.12 C349.4,218.82 350.7,213.82 352.9,209.32 C303.4,195.82 272.9,165.52 241.5,133.62 L241.5,133.62 Z" id="Path" stroke="#000000" fill="#000000" transform="translate(290.900000, 180.270000) scale(-1, 1) translate(-290.900000, -180.270000) "></path>
            <path d="M412.64,146.32 C390.88,214.12 385.52,283.52 380.35,352.32 C382.48,351.82 384.69,351.62 386.95,351.62 C390.94,351.62 394.76,352.32 398.3,353.72 C403.49,285.32 408.87,217.72 429.59,152.62 C423.41,151.82 417.65,149.62 412.64,146.32 Z" id="Path" stroke="#000000" fill="#000000" transform="translate(404.970000, 250.020000) scale(-1, 1) translate(-404.970000, -250.020000) "></path>
            <path d="M39,185.02 C26.2,185.02 16,195.22 16,208.02 C16,220.82 26.2,231.02 39,231.02 C51.8,231.02 62,220.82 62,208.02 C62,195.22 51.8,185.02 39,185.02 Z" id="Path" stroke="#511BD9" stroke-width="12" fill="#511BD9" transform="translate(39.000000, 208.020000) scale(-1, 1) translate(-39.000000, -208.020000) "></path>
            <path d="M163.8,207.22 C135.4,213.02 107.2,218.02 77.8,217.72 C78.2,219.82 78.4,221.92 78.4,224.12 C78.4,228.12 77.7,232.02 76.3,235.62 C108.3,236.22 138.3,230.92 167.5,224.82 C165.1,219.72 163.8,214.02 163.8,208.02 L163.8,207.22 Z" id="Path" stroke="#000000" fill="#000000" transform="translate(121.900000, 221.443228) scale(-1, 1) translate(-121.900000, -221.443228) "></path>
            <path d="M198.9,208.62 C190.2,208.62 183.4,215.42 183.4,224.12 C183.4,232.82 190.2,239.62 198.9,239.62 C207.6,239.62 214.4,232.82 214.4,224.12 C214.4,215.42 207.6,208.62 198.9,208.62 L198.9,208.62 Z" id="Path" stroke="#1BD9D9" stroke-width="12" fill="#1BD9D9" transform="translate(198.900000, 224.120000) scale(-1, 1) translate(-198.900000, -224.120000) "></path>
            <path d="M207.5,226.22 C151.9,272.12 100.9,320.62 64.4,376.92 C70.3,378.72 75.6,381.92 80,386.02 C114.9,332.52 164.2,285.22 218.8,240.12 C214.1,236.42 210.2,231.62 207.5,226.22 L207.5,226.22 Z" id="Path" stroke="#000000" fill="#000000" transform="translate(141.600000, 306.120000) scale(-1, 1) translate(-141.600000, -306.120000) "></path>
            <path d="M387.55,241.22 C339.65,287.62 277.95,324.42 214.7,360.72 C219.06,364.92 222.26,370.32 223.75,376.32 C287.35,339.92 350.55,302.42 400.55,253.62 C395.15,250.72 390.65,246.42 387.55,241.22 L387.55,241.22 Z" id="Path" stroke="#000000" fill="#000000" transform="translate(307.625000, 308.770000) scale(-1, 1) translate(-307.625000, -308.770000) "></path>
            <path d="M17,247.92 C18.3,276.72 23,305.22 31.3,333.12 C36.1,329.72 42,327.52 48.3,327.12 C40.7,301.12 36.4,274.82 35.1,248.02 C32.2,248.72 29.3,249.02 26.3,249.02 C23.1,249.02 20,248.62 17,247.92 Z" id="Path" stroke="#000000" fill="#000000" transform="translate(32.650000, 290.520000) scale(-1, 1) translate(-32.650000, -290.520000) "></path>
            <path d="M15,345.02 C6.6,345.02 0,351.62 0,360.02 C0,368.42 6.6,375.02 15,375.02 C23.4,375.02 30,368.42 30,360.02 C30,351.62 23.4,345.02 15,345.02 Z" id="Path" stroke="#D91B7A" stroke-width="12" fill="#D91B7A" transform="translate(15.000000, 360.020000) scale(-1, 1) translate(-15.000000, -360.020000) "></path>
            <path d="M422.99,369.62 C414.92,369.62 408.57,376.02 408.57,384.02 C408.57,392.12 414.92,398.52 422.99,398.52 C431.06,398.52 437.41,392.12 437.41,384.02 C437.41,376.02 431.06,369.62 422.99,369.62 L422.99,369.62 Z" id="Path" stroke="#511BD9" stroke-width="12" fill="#511BD9" transform="translate(422.990000, 384.070000) scale(-1, 1) translate(-422.990000, -384.070000) "></path>
            <path d="M181.3,369.92 C136.6,394.42 87.5,402.52 36.4,405.52 C37.3,408.92 37.8,412.42 37.8,416.02 C37.8,418.62 37.5,421.12 37.1,423.52 C90.2,420.42 142.9,411.92 191.4,385.02 C186.7,381.02 183.2,375.82 181.3,369.92 L181.3,369.92 Z" id="Path" stroke="#000000" fill="#000000" transform="translate(113.900000, 396.720000) scale(-1, 1) translate(-113.900000, -396.720000) "></path>
            <path d="M271.97,380.32 C272.11,381.52 272.19,382.72 272.19,384.02 C272.19,389.02 271.04,393.72 269,398.02 L390.86,418.32 C390.76,417.52 390.76,416.82 390.76,416.02 C390.76,410.62 391.86,405.42 393.76,400.62 L271.97,380.32 Z" id="Path" stroke="#000000" fill="#000000" transform="translate(331.380000, 399.320000) scale(-1, 1) translate(-331.380000, -399.320000) "></path>
            <path d="M231,393.02 C218.2,393.02 208,403.22 208,416.02 C208,428.82 218.2,439.02 231,439.02 C243.8,439.02 254,428.82 254,416.02 C254,403.22 243.8,393.02 231,393.02 Z" id="Path" stroke="#1BD9D9" stroke-width="12" fill="#1BD9D9" transform="translate(231.000000, 416.020000) scale(-1, 1) translate(-231.000000, -416.020000) "></path>
        </g>
    </g>
</svg>