<?xml version="1.0" encoding="UTF-8"?>
<svg width="3060px" height="720px" viewBox="0 0 3060 720" version="1.1" xmlns="http://www.w3.org/2000/svg" xmlns:xlink="http://www.w3.org/1999/xlink">
    <title>Wordmark</title>
    <g id="Wordmark" stroke="none" stroke-width="1" fill="none" fill-rule="evenodd">
        <g id="Group" transform="translate(382.085116, 339.055449) rotate(-49.000000) translate(-382.085116, -339.055449) translate(163.380116, 119.545449)" fill-rule="nonzero">
            <path d="M111.1,-1.42108547e-14 C88.9,-1.42108547e-14 71.1,17.8 71.1,40 C71.1,62.23 88.9,80.02 111.1,80.02 C133.3,80.02 151.1,62.23 151.1,40 C151.1,17.8 133.3,-1.42108547e-14 111.1,-1.42108547e-14 Z" id="Path" stroke="#1BD9D9" stroke-width="12" fill="#1BD9D9" transform="translate(111.100000, 40.010000) scale(-1, 1) translate(-111.100000, -40.010000) "></path>
            <path d="M239.3,51.97 C186.1,70.92 130.6,86.92 70.3,97.22 C72.1,101.82 73.1,106.82 73.1,112.02 C73.1,116.82 72.3,121.42 70.7,125.62 C166.9,138.52 253.5,161.62 328.5,197.52 C330.1,191.62 333,186.22 336.8,181.62 C265.6,147.32 184.4,124.42 95.3,110.92 C148.5,100.32 198.1,85.52 245.7,68.72 C242.7,63.52 240.5,57.93 239.3,51.97 L239.3,51.97 Z" id="Path" stroke="#000000" fill="#000000" transform="translate(203.550000, 124.745000) scale(-1, 1) translate(-203.550000, -124.745000) "></path>
            <path d="M49.5,80.82 C45.2,85.12 40.3,88.82 34.9,91.62 C50.2,116.42 60.9,142.22 66.7,169.42 C71,167.92 75.7,167.02 80.5,167.02 C81.9,167.02 83.3,167.12 84.6,167.22 C78.3,136.92 66.4,108.12 49.5,80.82 L49.5,80.82 Z" id="Path" stroke="#000000" fill="#000000" transform="translate(59.750000, 125.120000) scale(-1, 1) translate(-59.750000, -125.120000) "></path>
            <path d="M352,112.02 C352,124.82 362.19,135.02 375,135.02 C387.8,135.02 398,124.82 398,112.02 C398,99.22 387.8,89.02 375,89.02 C362.19,89.02 352,99.22 352,112.02 Z" id="Path" stroke="#D91B7A" stroke-width="12" fill="#D91B7A" transform="translate(375.000000, 112.020000) scale(-1, 1) translate(-375.000000, -112.020000) "></path>
            <path d="M241.5,133.62 C238.3,138.82 234,143.22 228.9,146.52 C261,179.12 295,212.42 349.5,226.92 C349.5,226.02 349.4,225.02 349.4,224.12 C349.4,218.82 350.7,213.82 352.9,209.32 C303.4,195.82 272.9,165.52 241.5,133.62 L241.5,133.62 Z" id="Path" stroke="#000000" fill="#000000" transform="translate(290.900000, 180.270000) scale(-1, 1) translate(-290.900000, -180.270000) "></path>
            <path d="M412.64,146.32 C390.88,214.12 385.52,283.52 380.35,352.32 C382.48,351.82 384.69,351.62 386.95,351.62 C390.94,351.62 394.76,352.32 398.3,353.72 C403.49,285.32 408.87,217.72 429.59,152.62 C423.41,151.82 417.65,149.62 412.64,146.32 Z" id="Path" stroke="#000000" fill="#000000" transform="translate(404.970000, 250.020000) scale(-1, 1) translate(-404.970000, -250.020000) "></path>
            <path d="M39,185.02 C26.2,185.02 16,195.22 16,208.02 C16,220.82 26.2,231.02 39,231.02 C51.8,231.02 62,220.82 62,208.02 C62,195.22 51.8,185.02 39,185.02 Z" id="Path" stroke="#511BD9" stroke-width="12" fill="#511BD9" transform="translate(39.000000, 208.020000) scale(-1, 1) translate(-39.000000, -208.020000) "></path>
            <path d="M163.8,207.22 C135.4,213.02 107.2,218.02 77.8,217.72 C78.2,219.82 78.4,221.92 78.4,224.12 C78.4,228.12 77.7,232.02 76.3,235.62 C108.3,236.22 138.3,230.92 167.5,224.82 C165.1,219.72 163.8,214.02 163.8,208.02 L163.8,207.22 Z" id="Path" stroke="#000000" fill="#000000" transform="translate(121.900000, 221.443228) scale(-1, 1) translate(-121.900000, -221.443228) "></path>
            <path d="M198.9,208.62 C190.2,208.62 183.4,215.42 183.4,224.12 C183.4,232.82 190.2,239.62 198.9,239.62 C207.6,239.62 214.4,232.82 214.4,224.12 C214.4,215.42 207.6,208.62 198.9,208.62 L198.9,208.62 Z" id="Path" stroke="#1BD9D9" stroke-width="12" fill="#1BD9D9" transform="translate(198.900000, 224.120000) scale(-1, 1) translate(-198.900000, -224.120000) "></path>
            <path d="M207.5,226.22 C151.9,272.12 100.9,320.62 64.4,376.92 C70.3,378.72 75.6,381.92 80,386.02 C114.9,332.52 164.2,285.22 218.8,240.12 C214.1,236.42 210.2,231.62 207.5,226.22 L207.5,226.22 Z" id="Path" stroke="#000000" fill="#000000" transform="translate(141.600000, 306.120000) scale(-1, 1) translate(-141.600000, -306.120000) "></path>
            <path d="M387.55,241.22 C339.65,287.62 277.95,324.42 214.7,360.72 C219.06,364.92 222.26,370.32 223.75,376.32 C287.35,339.92 350.55,302.42 400.55,253.62 C395.15,250.72 390.65,246.42 387.55,241.22 L387.55,241.22 Z" id="Path" stroke="#000000" fill="#000000" transform="translate(307.625000, 308.770000) scale(-1, 1) translate(-307.625000, -308.770000) "></path>
            <path d="M17,247.92 C18.3,276.72 23,305.22 31.3,333.12 C36.1,329.72 42,327.52 48.3,327.12 C40.7,301.12 36.4,274.82 35.1,248.02 C32.2,248.72 29.3,249.02 26.3,249.02 C23.1,249.02 20,248.62 17,247.92 Z" id="Path" stroke="#000000" fill="#000000" transform="translate(32.650000, 290.520000) scale(-1, 1) translate(-32.650000, -290.520000) "></path>
            <path d="M15,345.02 C6.6,345.02 0,351.62 0,360.02 C0,368.42 6.6,375.02 15,375.02 C23.4,375.02 30,368.42 30,360.02 C30,351.62 23.4,345.02 15,345.02 Z" id="Path" stroke="#D91B7A" stroke-width="12" fill="#D91B7A" transform="translate(15.000000, 360.020000) scale(-1, 1) translate(-15.000000, -360.020000) "></path>
            <path d="M422.99,369.62 C414.92,369.62 408.57,376.02 408.57,384.02 C408.57,392.12 414.92,398.52 422.99,398.52 C431.06,398.52 437.41,392.12 437.41,384.02 C437.41,376.02 431.06,369.62 422.99,369.62 L422.99,369.62 Z" id="Path" stroke="#511BD9" stroke-width="12" fill="#511BD9" transform="translate(422.990000, 384.070000) scale(-1, 1) translate(-422.990000, -384.070000) "></path>
            <path d="M181.3,369.92 C136.6,394.42 87.5,402.52 36.4,405.52 C37.3,408.92 37.8,412.42 37.8,416.02 C37.8,418.62 37.5,421.12 37.1,423.52 C90.2,420.42 142.9,411.92 191.4,385.02 C186.7,381.02 183.2,375.82 181.3,369.92 L181.3,369.92 Z" id="Path" stroke="#000000" fill="#000000" transform="translate(113.900000, 396.720000) scale(-1, 1) translate(-113.900000, -396.720000) "></path>
            <path d="M271.97,380.32 C272.11,381.52 272.19,382.72 272.19,384.02 C272.19,389.02 271.04,393.72 269,398.02 L390.86,418.32 C390.76,417.52 390.76,416.82 390.76,416.02 C390.76,410.62 391.86,405.42 393.76,400.62 L271.97,380.32 Z" id="Path" stroke="#000000" fill="#000000" transform="translate(331.380000, 399.320000) scale(-1, 1) translate(-331.380000, -399.320000) "></path>
            <path d="M231,393.02 C218.2,393.02 208,403.22 208,416.02 C208,428.82 218.2,439.02 231,439.02 C243.8,439.02 254,428.82 254,416.02 C254,403.22 243.8,393.02 231,393.02 Z" id="Path" stroke="#1BD9D9" stroke-width="12" fill="#1BD9D9" transform="translate(231.000000, 416.020000) scale(-1, 1) translate(-231.000000, -416.020000) "></path>
        </g>
        <path d="M847,459 L847,435.078571 L822.53125,435.078571 C811.84375,434.890952 802,432.920952 793,429.168571 C784,425.41619 776.171875,420.209762 769.515625,413.549286 C762.859375,406.88881 757.65625,399.00881 753.90625,389.909286 C750.15625,380.809762 748.28125,371.006667 748.28125,360.5 C748.28125,349.805714 750.15625,339.955714 753.90625,330.95 C757.65625,321.944286 762.859375,314.11119 769.515625,307.450714 C776.171875,300.790238 784,295.536905 793,291.690714 C802,287.844524 811.84375,285.921429 822.53125,285.921429 L822.53125,285.921429 L847,285.921429 L847,262 L821.6875,262 C806.6875,262.187619 793,264.86119 780.625,270.020714 C768.25,275.180238 757.609375,282.262857 748.703125,291.268571 C739.796875,300.274286 732.953125,310.687143 728.171875,322.507143 C723.390625,334.327143 721,346.991429 721,360.5 C721,374.008571 723.390625,386.672857 728.171875,398.492857 C732.953125,410.312857 739.796875,420.725714 748.703125,429.731429 C757.609375,438.737143 768.25,445.819762 780.625,450.979286 C793,456.13881 806.6875,458.812381 821.6875,459 L821.6875,459 L847,459 Z M971.5,462 C987.081502,462 1001.16117,459.330579 1013.73901,453.991736 C1026.31685,448.652893 1037.06433,441.300275 1045.98146,431.933884 C1054.89858,422.567493 1061.79762,411.702479 1066.67857,399.338843 C1071.55952,386.975207 1074,373.768595 1074,359.719008 C1074,345.669421 1071.55952,332.509642 1066.67857,320.239669 C1061.79762,307.969697 1054.89858,297.151515 1045.98146,287.785124 C1037.06433,278.418733 1026.31685,271.112948 1013.73901,265.867769 C1001.16117,260.62259 987.081502,258 971.5,258 C955.918498,258 941.838828,260.62259 929.260989,265.867769 C916.68315,271.112948 905.935668,278.418733 897.018544,287.785124 C888.101419,297.151515 881.202381,307.969697 876.321429,320.239669 C871.440476,332.509642 869,345.669421 869,359.719008 C869,373.768595 871.440476,386.975207 876.321429,399.338843 C881.202381,411.702479 888.101419,422.567493 897.018544,431.933884 C905.935668,441.300275 916.68315,448.652893 929.260989,453.991736 C941.838828,459.330579 955.918498,462 971.5,462 Z M971.5,438 C960.606965,438 950.55908,436.035971 941.356343,432.107914 C932.153607,428.179856 924.171642,422.661871 917.410448,415.553957 C910.649254,408.446043 905.390547,400.169065 901.634328,390.723022 C897.878109,381.276978 896,370.942446 896,359.719424 C896,348.496403 897.878109,338.161871 901.634328,328.715827 C905.390547,319.269784 910.649254,311.039568 917.410448,304.02518 C924.171642,297.010791 932.153607,291.586331 941.356343,287.751799 C950.55908,283.917266 960.606965,282 971.5,282 C982.205224,282 992.159204,283.917266 1001.36194,287.751799 C1010.56468,291.586331 1018.59359,297.010791 1025.44869,304.02518 C1032.30379,311.039568 1037.60945,319.316547 1041.36567,328.856115 C1045.12189,338.395683 1047,348.683453 1047,359.719424 C1047,370.942446 1045.12189,381.276978 1041.36567,390.723022 C1037.60945,400.169065 1032.30379,408.446043 1025.44869,415.553957 C1018.59359,422.661871 1010.56468,428.179856 1001.36194,432.107914 C992.159204,436.035971 982.205224,438 971.5,438 Z M1238.64067,462 C1248.76923,462 1257.81928,459.663444 1265.79083,454.990331 C1273.76238,450.317219 1280.04584,443.915055 1284.6412,435.78384 C1289.23656,427.652624 1291.53425,418.166206 1291.53425,407.324586 L1291.53425,407.324586 L1291.53425,309.75 C1291.53425,304.703039 1292.75342,300.123389 1295.19178,296.01105 C1297.63014,291.898711 1300.86565,288.627532 1304.89831,286.197514 C1308.93098,283.767495 1313.47945,282.552486 1318.54373,282.552486 C1323.42044,282.552486 1327.87513,283.767495 1331.9078,286.197514 C1335.94046,288.627532 1339.12908,291.898711 1341.47366,296.01105 C1343.81823,300.123389 1344.99052,304.703039 1344.99052,309.75 L1344.99052,309.75 L1344.99052,458.635359 L1372,458.635359 L1372,313.395028 C1372,303.11418 1369.74921,293.861418 1365.24763,285.63674 C1360.74605,277.412063 1354.46259,270.916436 1346.39726,266.149862 C1338.33193,261.383287 1329.04742,259 1318.54373,259 C1307.85248,259 1298.47418,261.383287 1290.40885,266.149862 C1282.34352,270.916436 1276.01317,277.412063 1271.41781,285.63674 C1266.82244,293.861418 1264.52476,303.11418 1264.52476,313.395028 L1264.52476,313.395028 L1264.52476,410.969613 C1264.52476,416.203499 1263.35248,420.82988 1261.0079,424.848757 C1258.66333,428.867634 1255.5216,432.092081 1251.58272,434.522099 C1247.64384,436.952118 1243.32982,438.167127 1238.64067,438.167127 C1233.95153,438.167127 1229.59062,436.952118 1225.55796,434.522099 C1221.52529,432.092081 1218.28978,428.867634 1215.85142,424.848757 C1213.41307,420.82988 1212.19389,416.203499 1212.19389,410.969613 L1212.19389,410.969613 L1212.19389,313.395028 C1212.19389,303.11418 1209.9431,293.861418 1205.44152,285.63674 C1200.93994,277.412063 1194.65648,270.916436 1186.59115,266.149862 C1178.52582,261.383287 1169.14752,259 1158.45627,259 C1147.95258,259 1138.66807,261.383287 1130.60274,266.149862 C1122.53741,270.916436 1116.25395,277.412063 1111.75237,285.63674 C1107.25079,293.861418 1105,303.11418 1105,313.395028 L1105,313.395028 L1105,458.635359 L1132.00948,458.635359 L1132.00948,309.75 C1132.00948,304.703039 1133.18177,300.123389 1135.52634,296.01105 C1137.87092,291.898711 1141.05954,288.627532 1145.0922,286.197514 C1149.12487,283.767495 1153.57956,282.552486 1158.45627,282.552486 C1163.33298,282.552486 1167.83456,283.767495 1171.96101,286.197514 C1176.08746,288.627532 1179.36986,291.898711 1181.80822,296.01105 C1184.24658,300.123389 1185.46575,304.703039 1185.46575,309.75 L1185.46575,309.75 L1185.46575,407.324586 C1185.46575,418.166206 1187.76344,427.652624 1192.3588,435.78384 C1196.95416,443.915055 1203.28451,450.317219 1211.34984,454.990331 C1219.41517,459.663444 1228.51212,462 1238.64067,462 Z M1544.64067,462 C1554.76923,462 1563.81928,459.663444 1571.79083,454.990331 C1579.76238,450.317219 1586.04584,443.915055 1590.6412,435.78384 C1595.23656,427.652624 1597.53425,418.166206 1597.53425,407.324586 L1597.53425,407.324586 L1597.53425,309.75 C1597.53425,304.703039 1598.75342,300.123389 1601.19178,296.01105 C1603.63014,291.898711 1606.86565,288.627532 1610.89831,286.197514 C1614.93098,283.767495 1619.47945,282.552486 1624.54373,282.552486 C1629.42044,282.552486 1633.87513,283.767495 1637.9078,286.197514 C1641.94046,288.627532 1645.12908,291.898711 1647.47366,296.01105 C1649.81823,300.123389 1650.99052,304.703039 1650.99052,309.75 L1650.99052,309.75 L1650.99052,458.635359 L1678,458.635359 L1678,313.395028 C1678,303.11418 1675.74921,293.861418 1671.24763,285.63674 C1666.74605,277.412063 1660.46259,270.916436 1652.39726,266.149862 C1644.33193,261.383287 1635.04742,259 1624.54373,259 C1613.85248,259 1604.47418,261.383287 1596.40885,266.149862 C1588.34352,270.916436 1582.01317,277.412063 1577.41781,285.63674 C1572.82244,293.861418 1570.52476,303.11418 1570.52476,313.395028 L1570.52476,313.395028 L1570.52476,410.969613 C1570.52476,416.203499 1569.35248,420.82988 1567.0079,424.848757 C1564.66333,428.867634 1561.5216,432.092081 1557.58272,434.522099 C1553.64384,436.952118 1549.32982,438.167127 1544.64067,438.167127 C1539.95153,438.167127 1535.59062,436.952118 1531.55796,434.522099 C1527.52529,432.092081 1524.28978,428.867634 1521.85142,424.848757 C1519.41307,420.82988 1518.19389,416.203499 1518.19389,410.969613 L1518.19389,410.969613 L1518.19389,313.395028 C1518.19389,303.11418 1515.9431,293.861418 1511.44152,285.63674 C1506.93994,277.412063 1500.65648,270.916436 1492.59115,266.149862 C1484.52582,261.383287 1475.14752,259 1464.45627,259 C1453.95258,259 1444.66807,261.383287 1436.60274,266.149862 C1428.53741,270.916436 1422.25395,277.412063 1417.75237,285.63674 C1413.25079,293.861418 1411,303.11418 1411,313.395028 L1411,313.395028 L1411,458.635359 L1438.00948,458.635359 L1438.00948,309.75 C1438.00948,304.703039 1439.18177,300.123389 1441.52634,296.01105 C1443.87092,291.898711 1447.05954,288.627532 1451.0922,286.197514 C1455.12487,283.767495 1459.57956,282.552486 1464.45627,282.552486 C1469.33298,282.552486 1473.83456,283.767495 1477.96101,286.197514 C1482.08746,288.627532 1485.36986,291.898711 1487.80822,296.01105 C1490.24658,300.123389 1491.46575,304.703039 1491.46575,309.75 L1491.46575,309.75 L1491.46575,407.324586 C1491.46575,418.166206 1493.76344,427.652624 1498.3588,435.78384 C1502.95416,443.915055 1509.28451,450.317219 1517.34984,454.990331 C1525.41517,459.663444 1534.51212,462 1544.64067,462 Z M1811.5,462 C1827.0815,462 1841.16117,459.330579 1853.73901,453.991736 C1866.31685,448.652893 1877.06433,441.300275 1885.98146,431.933884 C1894.89858,422.567493 1901.79762,411.702479 1906.67857,399.338843 C1911.55952,386.975207 1914,373.768595 1914,359.719008 C1914,345.669421 1911.55952,332.509642 1906.67857,320.239669 C1901.79762,307.969697 1894.89858,297.151515 1885.98146,287.785124 C1877.06433,278.418733 1866.31685,271.112948 1853.73901,265.867769 C1841.16117,260.62259 1827.0815,258 1811.5,258 C1795.9185,258 1781.83883,260.62259 1769.26099,265.867769 C1756.68315,271.112948 1745.93567,278.418733 1737.01854,287.785124 C1728.10142,297.151515 1721.20238,307.969697 1716.32143,320.239669 C1711.44048,332.509642 1709,345.669421 1709,359.719008 C1709,373.768595 1711.44048,386.975207 1716.32143,399.338843 C1721.20238,411.702479 1728.10142,422.567493 1737.01854,431.933884 C1745.93567,441.300275 1756.68315,448.652893 1769.26099,453.991736 C1781.83883,459.330579 1795.9185,462 1811.5,462 Z M1811.5,438 C1800.60697,438 1790.55908,436.035971 1781.35634,432.107914 C1772.15361,428.179856 1764.17164,422.661871 1757.41045,415.553957 C1750.64925,408.446043 1745.39055,400.169065 1741.63433,390.723022 C1737.87811,381.276978 1736,370.942446 1736,359.719424 C1736,348.496403 1737.87811,338.161871 1741.63433,328.715827 C1745.39055,319.269784 1750.64925,311.039568 1757.41045,304.02518 C1764.17164,297.010791 1772.15361,291.586331 1781.35634,287.751799 C1790.55908,283.917266 1800.60697,282 1811.5,282 C1822.20522,282 1832.1592,283.917266 1841.36194,287.751799 C1850.56468,291.586331 1858.59359,297.010791 1865.44869,304.02518 C1872.30379,311.039568 1877.60945,319.316547 1881.36567,328.856115 C1885.12189,338.395683 1887,348.683453 1887,359.719424 C1887,370.942446 1885.12189,381.276978 1881.36567,390.723022 C1877.60945,400.169065 1872.30379,408.446043 1865.44869,415.553957 C1858.59359,422.661871 1850.56468,428.179856 1841.36194,432.107914 C1832.1592,436.035971 1822.20522,438 1811.5,438 Z M2078.25792,462 C2088.73152,462 2097.89593,459.616713 2105.75113,454.850138 C2113.60633,450.083564 2119.77828,443.587937 2124.26697,435.36326 C2128.75566,427.138582 2131,417.88582 2131,407.604972 L2131,407.604972 L2131,262.364641 L2104.06787,262.364641 L2104.06787,411.25 C2104.06787,416.296961 2102.89894,420.876611 2100.56109,424.98895 C2098.22323,429.101289 2095.0905,432.372468 2091.1629,434.802486 C2087.23529,437.232505 2082.93363,438.447514 2078.25792,438.447514 C2073.5822,438.447514 2069.23379,437.232505 2065.21267,434.802486 C2061.19155,432.372468 2057.96531,429.101289 2055.53394,424.98895 C2053.10256,420.876611 2051.88688,416.296961 2051.88688,411.25 L2051.88688,411.25 L2051.88688,313.395028 C2051.88688,303.11418 2049.64253,293.861418 2045.15385,285.63674 C2040.66516,277.412063 2034.3997,270.916436 2026.35747,266.149862 C2018.31523,261.383287 2008.9638,259 1998.30317,259 C1987.82956,259 1978.57164,261.383287 1970.52941,266.149862 C1962.48718,270.916436 1956.22172,277.412063 1951.73303,285.63674 C1947.24434,293.861418 1945,303.11418 1945,313.395028 L1945,313.395028 L1945,458.635359 L1971.93213,458.635359 L1971.93213,309.75 C1971.93213,304.703039 1973.10106,300.123389 1975.43891,296.01105 C1977.77677,291.898711 1980.95626,288.627532 1984.97738,286.197514 C1988.99849,283.767495 1993.44042,282.552486 1998.30317,282.552486 C2003.16591,282.552486 2007.6546,283.767495 2011.76923,286.197514 C2015.88386,288.627532 2019.15686,291.898711 2021.58824,296.01105 C2024.01961,300.123389 2025.23529,304.703039 2025.23529,309.75 L2025.23529,309.75 L2025.23529,407.604972 C2025.23529,417.88582 2027.47964,427.138582 2031.96833,435.36326 C2036.45701,443.587937 2042.67572,450.083564 2050.62443,454.850138 C2058.57315,459.616713 2067.78431,462 2078.25792,462 Z M2199.01689,459 L2199.01689,394.552857 L2254.45779,394.552857 C2267.40338,394.552857 2278.94184,391.738571 2289.07317,386.11 C2299.2045,380.481429 2307.22514,372.695238 2313.13508,362.751429 C2319.04503,352.807619 2322,341.362857 2322,328.417143 C2322,315.09619 2318.99812,303.46381 2312.99437,293.52 C2306.99062,283.57619 2298.92308,275.836905 2288.79174,270.302143 C2278.66041,264.767381 2267.40338,262 2255.02064,262 L2255.02064,262 L2172,262 L2172,459 L2199.01689,459 Z M2251.36364,370 L2199,370 L2199,285 L2251.64516,285 C2259.52786,285 2266.80059,286.694352 2273.46334,290.083056 C2280.1261,293.471761 2285.38123,298.319491 2289.22874,304.626246 C2293.07625,310.933001 2295,318.604651 2295,327.641196 C2295,336.48948 2293.07625,344.114064 2289.22874,350.51495 C2285.38123,356.915836 2280.1261,361.763566 2273.46334,365.05814 C2266.80059,368.352713 2259.43402,370 2251.36364,370 L2251.36364,370 Z M2457,459 L2457,435.078571 L2404.07775,435.078571 C2396.57105,435.078571 2390.51877,432.686429 2385.92091,427.902143 C2381.32306,423.117857 2379.02413,417.067143 2379.02413,409.75 L2379.02413,409.75 L2379.02413,262 L2352,262 L2352,406.372857 C2352,416.316667 2354.11126,425.275476 2358.33378,433.249286 C2362.5563,441.223095 2368.56166,447.508333 2376.34987,452.105 C2384.13807,456.701667 2393.3807,459 2404.07775,459 L2404.07775,459 L2457,459 Z M2462.33813,458 L2479.73381,410.52809 L2582.42446,410.52809 L2599.53957,458 L2629,458 L2561.94245,279.910112 C2559.13669,272.23221 2555.06835,266.661049 2549.73741,263.196629 C2544.40647,259.73221 2538.28058,258 2531.35971,258 C2524.43885,258 2518.35971,259.779026 2513.1223,263.337079 C2507.88489,266.895131 2503.76978,272.513109 2500.77698,280.191011 L2500.77698,280.191011 L2434,458 L2462.33813,458 Z M2574,387 L2488,387 L2523.85668,289.580214 C2524.60369,287.147059 2525.53746,285.275401 2526.65798,283.965241 C2527.7785,282.65508 2529.27253,282 2531.14007,282 C2533.19435,282 2534.78176,282.65508 2535.90228,283.965241 C2537.0228,285.275401 2538.04995,287.147059 2538.98371,289.580214 L2538.98371,289.580214 L2574,387 Z M2756,459 L2756,435.078571 L2731.53125,435.078571 C2720.84375,434.890952 2711,432.920952 2702,429.168571 C2693,425.41619 2685.17188,420.209762 2678.51562,413.549286 C2671.85938,406.88881 2666.65625,399.00881 2662.90625,389.909286 C2659.15625,380.809762 2657.28125,371.006667 2657.28125,360.5 C2657.28125,349.805714 2659.15625,339.955714 2662.90625,330.95 C2666.65625,321.944286 2671.85938,314.11119 2678.51562,307.450714 C2685.17188,300.790238 2693,295.536905 2702,291.690714 C2711,287.844524 2720.84375,285.921429 2731.53125,285.921429 L2731.53125,285.921429 L2756,285.921429 L2756,262 L2730.6875,262 C2715.6875,262.187619 2702,264.86119 2689.625,270.020714 C2677.25,275.180238 2666.60938,282.262857 2657.70312,291.268571 C2648.79688,300.274286 2641.95312,310.687143 2637.17188,322.507143 C2632.39062,334.327143 2630,346.991429 2630,360.5 C2630,374.008571 2632.39062,386.672857 2637.17188,398.492857 C2641.95312,410.312857 2648.79688,420.725714 2657.70312,429.731429 C2666.60938,438.737143 2677.25,445.819762 2689.625,450.979286 C2702,456.13881 2715.6875,458.812381 2730.6875,459 L2730.6875,459 L2756,459 Z M2912,459 L2912,435.078571 L2838.8535,435.078571 C2832.31423,435.078571 2826.61571,433.624524 2821.75796,430.716429 C2816.90021,427.808333 2813.16348,423.915238 2810.54777,419.037143 C2807.93206,414.159048 2806.6242,408.905714 2806.6242,403.277143 C2806.6242,397.648571 2807.97877,392.348333 2810.6879,387.376429 C2813.39703,382.404524 2817.22718,378.370714 2822.17834,375.275 C2827.12951,372.179286 2833.06157,370.631429 2839.97452,370.631429 L2839.97452,370.631429 L2901.63057,370.631429 L2901.63057,346.71 L2838.01274,346.71 C2832.40764,346.71 2827.26964,345.349762 2822.59873,342.629286 C2817.92781,339.90881 2814.23779,336.297143 2811.52866,331.794286 C2808.81953,327.291429 2807.46497,322.319524 2807.46497,316.878571 C2807.46497,311.062381 2808.77282,305.855952 2811.38854,301.259286 C2814.00425,296.662619 2817.55414,292.957143 2822.03822,290.142857 C2826.52229,287.328571 2831.6603,285.921429 2837.45223,285.921429 L2837.45223,285.921429 L2912,285.921429 L2912,262 L2834.36943,262 C2824.46709,262 2815.40552,264.485952 2807.18471,269.457857 C2798.96391,274.429762 2792.47134,281.043333 2787.70701,289.298571 C2782.94268,297.55381 2780.56051,306.747143 2780.56051,316.878571 C2780.56051,325.13381 2782.61571,333.01381 2786.72611,340.518571 C2790.83652,348.023333 2796.81529,354.308571 2804.66242,359.374286 C2796.62845,363.877143 2790.50955,370.068571 2786.30573,377.948571 C2782.10191,385.828571 2780,394.271429 2780,403.277143 C2780,413.220952 2782.33546,422.414286 2787.00637,430.857143 C2791.67728,439.3 2798.16985,446.10119 2806.48408,451.260714 C2814.7983,456.420238 2824.37367,459 2835.21019,459 L2835.21019,459 L2912,459 Z" id="COMMONPLACE" fill="#000000" fill-rule="nonzero"></path>
    </g>
</svg>